<svg xmlns="http://www.w3.org/2000/svg" width="99.978" height="61.653" viewBox="0 0 99.978 61.653">
  <g id="Grupo_1242699" data-name="Grupo 1242699" transform="translate(-4269.262 10687.129)">
    <g id="proceso" transform="translate(4269.262 -10687.129)">
      <path id="Trazado_1335216" data-name="Trazado 1335216" d="M31.664,71.328a11.673,11.673,0,0,0,11.531-10H60.967l-2.154,2.154,2.356,2.356,5-5a1.666,1.666,0,0,0,0-2.356l-5-5-2.356,2.356L60.967,58H43.2a11.658,11.658,0,1,0-11.531,13.33Zm0-20a8.331,8.331,0,1,1-8.331,8.331A8.341,8.341,0,0,1,31.664,51.333Z" transform="translate(9.993 -9.675)" fill="#036c49"/>
      <path id="Trazado_1335217" data-name="Trazado 1335217" d="M59.664,71.328A11.664,11.664,0,1,0,48,59.664,11.678,11.678,0,0,0,59.664,71.328Zm0-20a8.331,8.331,0,1,1-8.331,8.331A8.341,8.341,0,0,1,59.664,51.333Z" transform="translate(28.649 -9.675)" fill="#036c49"/>
      <path id="Trazado_1335218" data-name="Trazado 1335218" d="M36.992,25A11.672,11.672,0,0,0,25.461,35H22.829a20.829,20.829,0,0,0,0,41.657H26.3L24.15,78.81l2.356,2.356,5-5a1.666,1.666,0,0,0,0-2.356l-5-5L24.15,71.168,26.3,73.323H22.829a17.5,17.5,0,0,1,0-34.992h2.633A11.658,11.658,0,1,0,36.992,25Zm0,20a8.331,8.331,0,1,1,8.331-8.331A8.341,8.341,0,0,1,36.992,45Z" transform="translate(-2 -25)" fill="#036c49"/>
    </g>
  </g>
</svg>
