<svg xmlns="http://www.w3.org/2000/svg" width="74.696" height="74.695" viewBox="0 0 74.696 74.695">
  <g id="Grupo_1242700" data-name="Grupo 1242700" transform="translate(-4585.442 10703.53)">
    <g id="proceso" transform="translate(4585.442 -10703.53)">
      <path id="Trazado_1335216" data-name="Trazado 1335216" d="M28.714,65.429a8.721,8.721,0,0,0,8.615-7.47H50.608L49,59.569l1.76,1.76,3.735-3.735a1.244,1.244,0,0,0,0-1.76L50.758,52.1,49,53.86l1.61,1.61H37.33a8.71,8.71,0,1,0-8.615,9.959Zm0-14.939a6.225,6.225,0,1,1-6.225,6.225A6.232,6.232,0,0,1,28.714,50.49Z" transform="translate(2.409 9.267)" fill="#036c49"/>
      <path id="Trazado_1335217" data-name="Trazado 1335217" d="M56.714,65.429A8.715,8.715,0,1,0,48,56.715,8.725,8.725,0,0,0,56.714,65.429Zm0-14.939a6.225,6.225,0,1,1-6.225,6.225A6.232,6.232,0,0,1,56.714,50.49Z" transform="translate(9.267 9.267)" fill="#036c49"/>
      <path id="Trazado_1335218" data-name="Trazado 1335218" d="M28.143,25a8.721,8.721,0,0,0-8.615,7.47H17.562a15.562,15.562,0,0,0,0,31.123h2.6l-1.61,1.61,1.76,1.76,3.735-3.735a1.244,1.244,0,0,0,0-1.76l-3.735-3.735-1.76,1.76,1.61,1.61h-2.6a13.072,13.072,0,0,1,0-26.144h1.967A8.71,8.71,0,1,0,28.143,25Zm0,14.939a6.225,6.225,0,1,1,6.225-6.225A6.232,6.232,0,0,1,28.143,39.939Z" transform="translate(-2 3.633)" fill="#036c49"/>
      <path id="Trazado_1335220" data-name="Trazado 1335220" d="M69.838,25.031A15.579,15.579,0,0,0,54.276,9.47H47.33a8.715,8.715,0,1,0,0,2.49h6.946a13.072,13.072,0,0,1,0,26.144H34.25l1.61-1.61-1.76-1.76-3.735,3.735a1.244,1.244,0,0,0,0,1.76L34.1,43.963l1.76-1.76-1.61-1.61H54.276A15.579,15.579,0,0,0,69.838,25.031ZM38.714,16.939a6.225,6.225,0,1,1,6.225-6.225A6.232,6.232,0,0,1,38.714,16.939Z" transform="translate(4.858 -2)" fill="#036c49"/>
    </g>
  </g>
</svg>
